<?xml version="1.0" encoding="UTF-8"?>
<svg id="_レイヤー_1" data-name="レイヤー 1" xmlns="http://www.w3.org/2000/svg" viewBox="0 0 1017 1017">
  <defs>
    <style>
      .cls-1 {
        fill: #040000;
      }

      .cls-2 {
        fill: #fff;
      }

      .cls-3 {
        fill: #ffdc2d;
      }

      .cls-4 {
        fill: #ffd70b;
      }

      .cls-5 {
        fill: #fcd000;
      }
    </style>
  </defs>
  <rect class="cls-5" width="1017" height="1017"/>
  <g>
    <path class="cls-2" d="M611.03,288.52l-15.31,20.86c11.61,10.51,37.24,33.86,40.09,37.79-4.41,9.93,5.43,15.75,13.28,10,9.89-7.24-11.66-38.73-29.83-59.65-2.87-3.3-5.59-6.23-8.23-9Z"/>
    <path class="cls-2" d="M522.01,318.34l3.93-12.26-15.88-11.2c-1.78,3.03-2.59,4.67-2.59,4.67,0,0-15.92-2.63-18.72-3.16-1.87-9.76-17.5-6.99-13.92,3.84,4.09,12.34,31.1,25.79,47.18,18.11Z"/>
    <path class="cls-2" d="M599.43,440.18l-25.19-27.68c4.59-7.68,8.44-14.55,10.56-19.26,8.92-19.86,6.97-36.4,6.97-36.4l-75.7-.74c-.96,24.18,9.76,48.71,19.95,62.34l-15.77,46.93,16.46,5.38s11.04-16.27,22.74-34.49c14,7.59,30.75,15.6,30.75,15.6l9.23-11.67Z"/>
    <path class="cls-1" d="M621.66,295.46c-18.26-21.02-32.54-31-33.15-31.41-1.01-.71-2.33-.75-3.37-.13-.96,.55-1.45,1.57-1.49,2.65-6.98,1.19-16.53,3.65-31.6,3.1-15.08-.55-20.87-1.38-27.04-2.37-10.96,14.42-16.95,24.61-19.24,28.77-3.65-.61-10.87-1.8-14.55-2.45-1.17-2.9-3.45-5.02-6.51-5.92-3.87-1.17-8.13-.13-10.86,2.67-2.64,2.73-3.37,6.69-2,10.85,.54,1.64,1.5,3.27,2.63,4.89,.85,8.86,4.03,14.57,5.02,16.04-.33,38.55-15.79,59.82-15.95,60.03-.66,.91-.48,2.18,.41,2.85,.36,.27,.79,.4,1.22,.4,.62,0,1.23-.29,1.63-.82,.67-.9,16.32-22.36,16.74-62.13,.79-.85,2.36-2.68,4.02-5.25,4.41,2.44,9.37,4.41,14.51,5.55,3.21,.73,6.3,1.08,9.2,1.08,1.33,0,2.57-.17,3.82-.32-2.28,17.91-2.29,33.99-2.29,33.99-.41,23.19,9.45,47.03,19.74,61.34l-15.29,45.49s0,.03,0,.05c-1.82,.36-6.5,1.06-12.1-.02-6.38-1.22-10.53,3.77-6.16,8.43,4.37,4.66,8.08,4.96,15.56,6.7,7.48,1.74,9.33,2.44,13.48,4.41,4.15,1.98,6.01-.34,7.73-3.27,1.01-1.72,2.53-5.46,3.62-8.29,1.08-1.59,10.61-15.66,21.12-31.96,13.03,6.95,27.22,13.77,28.26,14.26l.19,6.62s-8.08,9.04-3.53,11.48c4.56,2.45,13.34-2.49,15.9-5.3,2.56-2.81,8.44-15.77,10.3-19.15,1.8-3.27-2.25-6.26-10.8-11.26l-22.72-24.96c4.11-6.96,7.55-13.18,9.53-17.59,6.48-14.44,7.65-29.77,7.79-37.88,.22-6.96,.79-27.23,.42-42.89,14.54,13.18,31.62,28.95,36.35,34.04-1.78,5.73,.36,10.08,3.19,12.36,2.03,1.65,4.52,2.45,7.13,2.45,2.83,0,5.78-.96,8.42-2.89,2.09-1.53,3.37-3.86,3.69-6.75,1.84-16.43-27.16-50.79-32.99-57.5Zm-139.77,22.73c-.8-1.52-1.79-3.81-2.56-6.7,1.44,1.27,3.06,2.46,4.78,3.6-.78,1.2-1.56,2.28-2.22,3.1Zm21.56-1.56c-11.62-2.59-23.37-10.56-25.62-17.39-.44-1.35-.71-3.2,.53-4.48,.76-.79,1.96-1.23,3.16-1.23,.45,0,.92,.06,1.36,.21,1.04,.3,2.36,1.11,2.76,3.24,.25,1.26,1.23,2.25,2.5,2.5,2.81,.54,18.82,3.18,18.82,3.18,1.39,.18,2.18-.29,3.04-1.7,.22-.36,.75-1.33,1.63-2.84l6.96,5.92c-.21,.91-.43,1.74-.64,2.68-.74,3.34-1.35,6.76-1.89,10.19-4.68,.89-9.44,.44-12.61-.27Zm91.83,123.69l-6,7.59c-4.58-2.22-15.31-7.5-25.34-12.84,3.71-5.81,7.39-11.7,10.8-17.31l20.54,22.56Zm-13.37-48.39c-7.63,17.02-38.35,62.98-46.02,74.37l-10.78-5.53,25.97-77.3c.36-1.05,.13-2.23-.61-3.07l-5.52-6.34c-1.14-1.3-3.12-1.43-4.45-.3-1.31,1.14-1.44,3.12-.3,4.45l4.33,4.98-9.46,28.16c-8.25-13.04-16.24-32.99-15.85-53.56l69.83,1.4c-.36,8.03-1.84,20.93-7.15,32.75Zm65.33-37.3c-3.12,2.27-6.25,1.92-7.87,.62-1.74-1.4-1.97-3.87-.67-6.8,.45-1.04,.34-2.23-.32-3.14-2.89-3.95-25.41-24.57-38.05-36.03l11.78-14.96c1.58,1.72,3.13,3.36,4.79,5.26,19.5,22.47,32.45,44.13,31.49,52.68-.17,1.49-.74,2.06-1.14,2.37Z"/>
    <path class="cls-2" d="M636.3,135.36c-21.89-41.68-79.03-56.15-119.31-31.58-40.28,24.58-39.72,71.21-40.96,91.89-1.25,20.68-5.75,40.09,21.5,59.04,20.43,14.21,52.36,16.32,76.88,12.4,24.52-3.92,39.25-16.38,48.36-29.42,3.58-5.13,18.66-4.98,23.71-19.32,7.19-20.42,2.7-58.53-10.16-83.01Z"/>
    <path class="cls-1" d="M504.07,187.15c-8.87,.11-8.67,16.8,0,17.41,8.67,.61,8.87-17.52,0-17.41Z"/>
    <path class="cls-1" d="M581.96,189.87c-8.87,.11-8.67,16.8,0,17.41,8.67,.61,8.87-17.52,0-17.41Z"/>
    <path class="cls-1" d="M543.71,242.68c-10.46,0-21.66-3.54-25.91-12.21-.49-1.01-.08-2.23,.93-2.72,1-.51,2.23-.09,2.72,.93,4,8.19,16.98,11.08,27.76,9.56,8.68-1.17,14.83-4.76,15.66-9.12,.22-1.1,1.27-1.76,2.37-1.62,1.1,.21,1.83,1.27,1.62,2.37-1.18,6.22-8.5,10.98-19.1,12.4-1.94,.26-3.99,.4-6.05,.4Z"/>
    <path class="cls-1" d="M648.51,146.29c-11.13-32.06-39.72-63.24-95.29-59.37-41.49,2.89-59.97,28.26-68.22,48.81-7.3,15.34-9.78,31.52-10.77,44.55-14.04,42.47-7.94,60.52,12.16,68.61,2.72,2.69,5.79,5.37,9.6,8.03,15.5,10.78,36.6,14.64,56.02,14.64,8.06,0,15.84-.67,22.81-1.78,7.54-1.21,14.28-3.56,20.66-6.43,55.99,4.35,63.84-30.44,64.11-55.47,.23-20.37-3.69-42.41-11.09-61.58Zm-5.89,69.22c-3.27,7.43-8.33,11.18-12.9,13.21-.57,.26-1.17,.58-1.72,.78-1.42,.51-2.8,.91-3.97,1.15-1.85,3.12-3.2,5.11-3.47,5.49-2.89,4.13-6.13,7.8-9.7,11.04-.08,.07-.17,.12-.26,.19-3.52,3.17-7.34,5.94-11.47,8.3,0,0,0,0,0,0-7.43,4.25-15.77,7.27-25.16,8.77-21.63,3.47-54.25,2.4-74.92-11.96-23.37-16.26-22.16-32.23-20.76-50.72,.14-1.97,.66-10.64,.66-10.64,.4-7.83,.94-18.07,3.08-28.99,12.4-.92,55.54-6.01,96.14-33.63,15.35,28.52,28.14,45.24,37.02,54.81,1.01,12.49,1.16,17.86,1.23,20.42,.11,3.88,3.07,3.87,5.21,1.08,.32-.41,.58-.92,.86-1.41v-.1c1.79-3.24,2.99-7.69,8.38-10.06,3.02-1.32,5.93-.17,8.15,1.37,.65,.45,1.26,.92,1.78,1.39,1.06,1.22,1.9,2.71,2.5,4.37,0,.02,0,.05,.02,.07,.59,1.66,.96,3.5,1.05,5.44,.15,3.02-.27,6.27-1.74,9.62Z"/>
    <g>
      <path class="cls-2" d="M556.35,452.56c-1.84-6.99-1.25-11.85-8.16-12.36-6.91-.51-7.92-4.03-7.92-4.03,0,0,2.06-16.21-1.2-31.04-3.26-14.84-22.48-40.39-61.97-21.42-.08,.2-.05,.36-.12,.56l-7.71-.74c1.78-12.67-2.05-25.32-9.53-34.54-13.46-16.59-31.71-20.77-46.43-20.07-14.71,.7-21.45,3.66-32.03,14.66-8.14,8.46-10.72,23.16-10.44,33.79-7.36,7.31-9.77,18.69-5.66,26.19,3.1,5.66,7.76,8.27,12.19,8.24,3.23,6.58,13.17,12.47,22.11,13.67,1.76,6.78,3.84,11.75,6.92,16.1-3.29,9.06-8.74,18.62-13.76,21.79-11.06-1.3-10.25,9.35-.48,11.93,4.84,1.28,11.13,.19,18.21-3.07-.02,.95,.3,1.97,1.46,3.08,4.38,4.2,12.8,5.03,23.21-.45,6.3-3.31,17.58-11.49,25.54-17.45,1.67,.18,3.29,.32,4.82,.36,13.98,.38,22.41-6.48,29.53-12.42,6.38,7.48,15.43,9.25,22.79,10.91,9.46,2.14,25.9-.52,25.9-.52,0,0,3.93,11.16,6.48,14.85,2.55,3.69,9.77,2.88,9.36-1.87-.41-4.75-1.29-9.16-3.12-16.14Z"/>
      <path class="cls-4" d="M399.06,425.51c3.31,18.2,17.65,25.65,17.65,25.65,0,0,14.62-3.59,28.13-17.38,13.51-13.79,15.17-27.03,15.17-27.03,0,0-17.1,18.48-37.51,19.31-20.41,.83-23.44-.55-23.44-.55Z"/>
      <path class="cls-1" d="M559.04,451.86h0c-.34-1.3-.6-2.5-.83-3.62-1.05-5.04-2.14-10.25-9.81-10.81-3.46-.26-4.83-1.35-5.29-1.83,.4-3.68,1.59-17.79-1.33-31.09-1.84-8.36-8.46-20.29-21.09-26.44-8.66-4.22-23.47-7.13-44.8,3.12l-.16,.14-3.86-.36c.89-11.1-2.07-21.87-8.08-30.64,2.46-1.74,6.06-5.06,7.19-10.96,1.75-9.05,.29-15.4-2.32-22.08-2.61-6.68-3.49-12.49-7.07-18.58-3.58-6.08-11.24-2.62-15.98,3.72-4.74,6.34-9.03,15.36-9.85,22-.21,1.67-.63,3.2-1.19,4.56-5.18-1.57-10.05-2.26-14.37-2.54-.47-6.2-1.13-12.23-2.61-17.79-3.06-11.48-6.73-15.62-11.61-12.62-4.88,3.01-18.9,25.76-21.03,37.89-.16,.93-.03,1.71-.08,2.59-1.76,1.54-3.56,3.21-5.49,5.22-8.4,8.73-11.27,23.37-11.2,34.56-7.56,8.14-9.86,20.19-5.31,28.48,3.02,5.49,7.76,8.96,12.92,9.5,3.74,6.01,12.28,11.26,20.86,13.11,1.59,4.68,3.6,9.7,6.6,14.38-3.14,8.18-7.65,15.8-11.37,18.69-6.4-.49-9.37,2.9-9.94,5.97-.79,4.15,2.28,9.59,9.51,11.5,4.77,1.22,10.7,.54,17.3-2.05,.31,.48,.71,.93,1.17,1.37,2.49,2.4,6.44,4.16,11.59,4.16,.7,0,1.55-.25,2.29-.32,1.72-.08,3.27-.28,4.2-.57,0,0,.01-.01,.02-.01,2.59-.66,5.36-1.68,8.33-3.24,4.95-2.6,13.37-8.33,25.04-17.04,1.36,.14,2.7,.23,3.95,.27,13.49,.53,22.73-5.99,29.38-11.39,6.47,6.23,14.7,8.09,21.44,9.6l.97,.22c7.81,1.75,19.71,.48,24.66-.17,1.32,3.56,3.99,10.39,6.04,13.36,2.09,3.03,6.4,4.3,10.04,2.99,2.97-1.08,4.63-3.64,4.35-6.69-.41-4.81-1.28-9.3-3.19-16.59Zm-168.85-100.24c1.46-7.78,6.79-16.88,17.21-19.6,1.86-.22,3.82-.4,6.04-.51,4.25-.19,10.3,.1,16.9,1.76-16.07,1.85-18.32,24.58-18.57,29.94-.08,1.78-.53,2.9-1.83,5.5-1.31,2.59-2.05,6.57,2.34,8.84,4.39,2.27,8.57,5.24,10.86,7.43,3.26,3.1,5.71,6.34,9.98,9.07,7.28,4.65,19.92,6.4,27.36,.75,1.91-1.46,3.43-3.27,4.65-5.28-2.78,7.99-8.43,18.32-22.16,27.59-13.73,9.27-34.99,6.85-43.13,5.76-.44-.06-.88-.25-1.33-.34,2.09-.75,4.06-1.85,5.68-3.56,1.79,.02,3.6,.03,5.69-.05,12.71-.44,20.56-6.3,25.79-9.65,5.23-3.36-6.06-10.43-8.26-6.84-2.21,3.58-5.98,6.99-11.31,7.72-9.33,1.29-18.19-2.64-21.94-6.81-3.76-4.17-4.89-10.17-3.24-19.17,3.06-.54,8.35-4.19,9.8-7.43,0,0,1.74,.66,2.64,.91s2.16-.16,2.5-.86c.47-.98,.07-2-.92-2.53s-6.21-2.6-11.08-3.2c-4.87-.6-6.14-.19-6.14-.19,3.51-4.69,1.21-12.5,2.48-19.24Zm-13.68,56.99c-4.84-.41-7.11-2.77-9.05-6.32-3.49-6.37-1.31-16.18,4.88-22.63,3.84-3.4,5.78-3.75,8.16-4.46-.04,.48-.08,1.08,.19,1.71,1,2.35,3.38,4.56,5.22,5.91,.43,.31,.77,.4,1.15,.61-1.27,6.92-.81,11.97-.19,14.66-.73,5.55-5.52,10.94-10.36,10.53Zm12.2,10.61c-3.06-.79-6.19-2.75-6.74-5.35,3.6-1.05,6.07-2.6,7.37-3.6,2.55,1.23,8.45,3.93,12.88,4.99-3.12,4.33-8.79,5.2-13.52,3.97Zm13.96,9.23c4.96,.56,12.83,1.21,18.92,.5,6.91-.81,21.28-1.98,34.56-15.25-8.42,18.71-27.73,30.34-39.56,34.59-6.73-4.32-11.07-12.33-13.92-19.83Zm6.44,41.24s0,.01,0,.02c-6.46,2.97-12.11,3.97-16.22,2.86-4.02-1.06-5.77-3.64-5.49-5.09,.22-1.17,2.15-1.75,4.94-1.4l.97,.1,.83-.52c4.85-3.06,9.59-10.78,13.03-18.79,2.28,2.61,4.78,5,7.79,6.7,.4,.23,.87,.35,1.32,.35,.29,0,.57-.04,.86-.13,2-.67,4.25-1.57,6.65-2.66l-7.65,12.98c-2.01,.64-5.83,2.24-7.02,5.59Zm146.87,.22c-1.1,.4-2.85,.12-3.59-.95-1.91-2.76-5.08-11.18-6.14-14.19l-.78-2.19-2.28,.38c-.17,.01-16.04,2.58-24.84,.56l-.97-.22c-6.95-1.57-14.81-3.33-20.31-9.78l-1.78-2.09-2.11,1.76c-6.83,5.68-14.28,12.09-27.69,11.77-1.45-.04-2.99-.17-4.59-.35l-1.09-.12-.87,.66c-11.72,8.76-20.42,14.72-25.18,17.22-4.49,2.35-8.26,3.23-11.44,3.37-2.91-.03-6.13-.58-7.29-2.06-.34-.43-1.1-1.52-.87-2.18,.38-1.05,2.79-2.13,4.32-2.48,.73-.16,1.36-.61,1.74-1.26l12.74-21.64c10.08-6.15,20.64-15.4,27.02-27.82,5.88,.82,12.13,.47,18.31-1.57,18.78-6.23,16.33-28.63,11.86-35.1,10.59-2.99,20-2.53,28.12,1.42,10.83,5.27,16.51,15.49,18.09,22.64,3.12,14.18,1.17,29.95,1.15,30.1l-.08,.57,.16,.54c.16,.56,1.8,5.4,10.39,6.03,3.4,.26,3.73,1.33,4.8,6.41,.26,1.21,.53,2.51,.89,3.9,1.81,6.93,2.64,11.18,3.03,15.67,.03,.31,.06,.7-.73,.98Z"/>
      <path class="cls-2" d="M451.42,318.6c2.14-6.8,5.68-8.33,7.54-4.51,1.86,3.81,4.36,13.5,3.77,19.89-.59,6.39-6.42,11.9-6.42,11.9-2.01-9.57-7.46-19.08-4.89-27.28Z"/>
      <path class="cls-2" d="M375.53,358.59c-.19,.12-.34,.41-.52,.57,.06-.01,.1-.06,.15-.06,6.08-.93,5.08,11.2-1.29,12.64-.08,.02-.14-.03-.22-.01,.89,.33,1.99,.44,3.55-.04,4-1.24,6.24-5.64,6.14-9.52-.08-3.14-2.44-6.86-7.81-3.57Z"/>
      <path class="cls-2" d="M426.38,359.93c-1.89-.17-3.19,.4-4.28,1.17,.16,.01,.28-.05,.44-.03,9.09,1.15,8.62,14.99,.26,15.4,1.09,.77,2.34,1.35,3.7,1.65,8.4,1.87,12.07-3.38,11.08-7.87-.99-4.49-6.01-9.86-11.2-10.32Z"/>
    </g>
  </g>
  <g>
    <g>
      <path class="cls-1" d="M298.59,574.29c-6.57-1.22-12.79-1.98-18.79-2.31-.06-4.74-.23-9.49-.34-14.23l35.87-1.59c.95-.03,1.68-.82,1.66-1.77l-.76-27.89c-.02-.46-.21-.9-.55-1.22-.33-.3-.74-.47-1.18-.47-.02,0-.06,0-.08,.01l-35.9,1.59c-.21-5.59-.4-11.17-.64-16.79-.01-.47-.23-.91-.57-1.23s-.83-.43-1.27-.43l-31.68,2.27c-.46,.03-.89,.25-1.19,.6-.3,.36-.45,.82-.41,1.28,.46,5.19,.9,10.55,1.35,15.83l-40.02,1.77c-.95,.03-1.68,.82-1.66,1.77l.76,27.89c.02,.46,.21,.9,.55,1.22,.33,.3,.74,.47,1.18,.47,.02,0,.06,0,.08-.01l41.53-1.84c.37,5.27,.8,10.51,1.11,15.81-3.78,.97-7.54,2.15-11.3,3.57-11.78,5.04-21.2,12.01-28.01,20.73-7.55,9.65-11.92,21.62-12.34,33.7-.5,14.85,4.03,26.83,13.51,35.66,10.31,8.97,25.08,11.81,38.46,7.52,12.58-3.64,23.63-14.58,27.51-27.26,2.82-9.8,3.21-17.47,3.61-24.88,.1-1.87,.19-3.73,.34-5.69,.12-3.83,.23-7.66,.3-11.48,4.28,.02,8.55,.25,12.69,.65,12.58,1.9,19.34,8.25,21.92,20.54,1.66,8.2-2.77,20.03-13.16,35.14-.5,.73-.36,1.72,.3,2.3l15.88,13.51c.33,.27,.73,.42,1.13,.42,.43,0,.86-.16,1.18-.47,18.55-17.48,27.25-35.78,26.61-55.98-.46-12.57-6.89-25.84-16.34-33.79-8.51-7.33-19.05-12.33-31.34-14.9Zm-50.69,66.12c-1.16,4.61-4.11,7.97-8.55,9.71-4.44,1.83-9.51,.6-11.82-1.75-2.24-1.72-3.47-7.67-2.74-13.23,1.84-12.44,11.53-20.05,24.37-24.2,.06,2.28,.1,4.54,.12,6.81,0,8.89-.16,17.79-1.37,22.65Z"/>
      <path class="cls-1" d="M320.81,574.55l22.54,4.65c.11,.03,.24,.05,.35,.05,.79,0,1.49-.54,1.68-1.33l14.59-60.44c.11-.46,.03-.96-.24-1.36-.26-.39-.69-.66-1.16-.74l-28.66-4.8c-.46-.14-.92,.03-1.31,.3-.37,.28-.62,.7-.69,1.16l-8.47,60.59c-.12,.9,.47,1.75,1.36,1.93Z"/>
    </g>
    <g>
      <path class="cls-1" d="M431.41,619.39c-.18-13.3,12.5-32.89,31.47-49.49,13.02,.1,21.54,.52,21.78,.52,.46,.1,.91-.14,1.25-.44s.54-.74,.56-1.21l1.47-30.69c.05-.95-.69-1.76-1.63-1.8-.65-.08-64.81-3.23-122.71,6.81-.45,.08-.86,.33-1.13,.71-.26,.37-.36,.83-.28,1.3l5.3,30.2c.08,.45,.34,.86,.72,1.12,.29,.2,.63,.32,.98,.32,.11,0,.21-.01,.33-.03,16.94-3.27,35.62-5.02,52.95-5.93-7.55,8.87-14.74,20.11-20.25,32.1-2.73,6.36-5.88,19.55-4.34,28.92,1.26,9.82,7.17,20.7,12.36,26.41,11.25,12.04,33.35,19.77,34.28,20.08,.18,.07,.37,.1,.56,.1,.56,0,1.12-.28,1.44-.78l16.61-25.06c.28-.43,.36-.96,.21-1.44-.14-.5-.5-.89-.96-1.1-11.48-5.04-30.79-15.72-30.98-30.6Z"/>
      <path class="cls-1" d="M473.3,581.66c-.42-.25-.9-.36-1.37-.2l-19.95,5.41c-.46,.12-.85,.43-1.07,.85-.23,.43-.27,.91-.12,1.37l11.2,33.6c.25,.72,.91,1.18,1.65,1.18,.16,0,.3-.02,.46-.07l14.95-4.15c.86-.24,1.4-1.09,1.24-1.97l-6.21-34.86c-.08-.47-.36-.9-.78-1.16Z"/>
      <path class="cls-1" d="M502.06,578.87c-.02-.5-.26-.95-.64-1.26-.38-.3-.83-.5-1.37-.35l-19.71,3.32c-.46,.07-.87,.34-1.14,.72-.26,.38-.36,.87-.27,1.33l6.91,34.07c.17,.81,.89,1.39,1.7,1.39,.1,0,.2-.01,.32-.03l14.59-2.66c.85-.16,1.45-.92,1.41-1.79l-1.79-34.73Z"/>
    </g>
    <g>
      <path class="cls-1" d="M621.65,562.87c-12.46-9.4-26.62-12.53-40.84-12.73l6.03-33c.09-.47-.02-.96-.32-1.35-.28-.38-.71-.63-1.19-.69l-29.09-3.28c-.92,.07-1.77,.56-1.9,1.48l-5.93,40.26c-20.51,4.07-39.55,11.61-39.74,11.69-.44,.18-.79,.53-.97,.97-.17,.45-.16,.94,.05,1.37l10.89,23.45c.35,.78,1.25,1.12,2.07,.92,7.56-2.33,15.32-4.27,22.89-5.75l-11.7,79.41c-.07,.45,.06,.92,.33,1.3,.28,.36,.7,.61,1.16,.66l23.72,3.1c.08,.01,.16,.02,.23,.02,.82,0,1.56-.6,1.7-1.42l15.82-86.53c8.62-.13,19.91,.68,26.96,5.53,10.32,7.15,4.61,28.96,1.79,36.04-1.85,4.63-4.59,10.09-7.69,15.78l-9.45-3.17c-.81-.26-1.68,.08-2.07,.82l-10.04,18.71c-.45,.85-.15,1.88,.69,2.34l27.28,14.88,.86,.64c.3,.24,.66,.35,1.03,.35,.45,0,.9-.18,1.24-.52,11.6-11.84,21.29-28.52,28.81-49.58,7.08-19.9,7.49-46.57-12.59-61.71Z"/>
      <path class="cls-1" d="M669.61,558.84l-49.23-51.87c-.64-.68-1.7-.72-2.4-.1l-21.93,19.44c-.36,.33-.57,.78-.59,1.26,0,.48,.19,.95,.54,1.28l51.64,49.28c.34,.32,.77,.48,1.19,.48,.41,0,.8-.15,1.13-.43l19.52-16.85c.36-.3,.57-.74,.6-1.22s-.15-.94-.47-1.28Z"/>
    </g>
    <g>
      <path class="cls-1" d="M823.8,551.92c-.02-.95-.79-1.71-1.74-1.71h-.02l-22.3,.29c-.06-14.98-.58-26.99-.88-32.73-.05-.92-.8-1.65-1.72-1.65h-.02l-34.52,.5c-.47,.01-.92,.21-1.25,.56s-.48,.81-.45,1.3c.82,11.83,1.36,22.52,1.76,32.51l-29.31,.38c-.46,.01-.9,.2-1.22,.53-.33,.33-.5,.77-.5,1.23l.41,27.77c.02,.95,.79,1.71,1.74,1.71h.02l29.5-.38c-.09,57.49-8.15,75.38-12.58,85.08-.38,.86-.03,1.86,.81,2.28l21.53,10.71c.24,.12,.51,.19,.77,.19,.46,0,.91-.19,1.25-.54,16.61-17.4,22.39-60.34,24.08-98.18l23.34-.3c.46-.01,.9-.2,1.22-.53,.33-.33,.5-.77,.5-1.23l-.41-27.76Z"/>
      <path class="cls-1" d="M719.45,621.73l-9.58,2.85c-.39-2.79-.75-5.82-1.07-9.15-2.66-27.46-1.39-61.79-1.37-62.13,.02-.46-.15-.91-.46-1.25-.33-.34-.77-.54-1.23-.55l-30.83-.6h-.03c-.92,0-1.69,.73-1.72,1.67-.94,23.09-.18,40.92,2.54,59.59,1.36,9.59,3.08,18.21,5.26,26.37,2.56,9.15,4.85,16.48,9.37,25.18l.28,1.12c.12,.5,.46,.91,.92,1.14,.17,.08,.37,.11,.56,.14,.03,.01,.04,.05,.07,.06,.16,.06,.33,.08,.48,.08,.29,0,.57-.08,.83-.23l2.29-1.27,33.54-15.07c.82-.37,1.22-1.3,.92-2.15l-8.64-24.7c-.3-.86-1.18-1.41-2.13-1.08Z"/>
    </g>
  </g>
  <g>
    <g>
      <path class="cls-1" d="M741.44,803.46h-80.51c-.64,0-1.15,.51-1.15,1.15v74.8c0,.64,.51,1.15,1.15,1.15h25.24c.64,0,1.15-.51,1.15-1.15v-7.33h26.44v6.77c0,.64,.51,1.15,1.15,1.15h26.53c.64,0,1.15-.51,1.15-1.15v-74.25c0-.64-.51-1.15-1.15-1.15Z"/>
      <path class="cls-1" d="M748.81,768.45h-17.64c1.25-3.13,4.11-10.39,9.13-23.11,.12-.33,.1-.68-.06-.98-.17-.3-.45-.51-.79-.57l-11.52-2.33h18.65c.64,0,1.15-.51,1.15-1.15v-23.58c0-.64-.51-1.15-1.15-1.15h-31.27v-13.77c0-.64-.51-1.15-1.15-1.15h-26.71c-.64,0-1.15,.51-1.15,1.15v13.77h-31.65c-.64,0-1.15,.51-1.15,1.15v23.58c0,.64,.51,1.15,1.15,1.15h20.52l-10.44,2.15c-.33,.07-.61,.27-.77,.56-.17,.29-.19,.64-.08,.96,2.96,8.13,4.83,15.97,5.53,23.33h-18.27c-.64,0-1.15,.51-1.15,1.15v24.69c0,.64,.51,1.15,1.15,1.15h97.64c.64,0,1.15-.51,1.15-1.15v-24.69c0-.64-.51-1.15-1.15-1.15Zm-42.54-2.52c-.1,.3-.07,.64,.09,.92s.43,.48,.74,.56l4.43,1.04h-22.1l5.47-1.23c.59-.14,.97-.68,.9-1.27-1.05-8.43-3.26-16.67-6.58-24.5h23.24c-1.24,7.53-3.32,15.76-6.19,24.48Z"/>
      <path class="cls-1" d="M830.96,722.44c.17-.51-.03-1.07-.48-1.35l-20.07-12.34c-.27-.16-.57-.21-.86-.15l-3.99,.9h-52.15c-.64,0-1.15,.51-1.15,1.15v168.57c0,.64,.51,1.15,1.15,1.15h26.72c.64,0,1.15-.51,1.15-1.15v-44.71c2.92,6.45,4.5,14.03,4.7,22.62,.01,.63,.52,1.13,1.15,1.13,6.9,0,11.59-.18,14.35-.56,5.57-.76,10.28-2.56,13.95-5.36,7.54-5.36,11.35-15.78,11.35-30.96,0-16.43-5.32-31.13-15.83-43.68,4.53-10.75,11.26-29.34,20.02-55.26Zm-49.68,14.97h13.39c-4.74,18.4-9.07,33-12.86,43.41-.16,.42-.06,.88,.25,1.19,10.67,11.13,16.08,23.08,16.08,35.49,0,5.67-1.18,9.24-3.55,10.65-1.27,.85-3.17,1.28-5.73,1.28-1.3,.09-3.79,.06-7.58-.15v-91.88Z"/>
    </g>
    <path class="cls-1" d="M517.4,823.84l-27.17-10.42c-.52-.21-1.08-.17-1.54,.15-.46,.29-.76,.78-.8,1.33-.55,6.93-5.02,17.07-12.17,22.24-4.35,3.11-9.16,4.03-14.24,2.78-3.67-.91-6.38-2.94-8.25-6.21-6.37-11.09-.38-31.88-.33-32.1,.25-.85-.18-1.75-.99-2.08l-23.37-9.66c-.74-.33-1.59-.07-2.06,.57l-11.28,15.3,27.29-76.29c.17-.48,.12-1.01-.14-1.45s-.69-.74-1.19-.83l-32.82-5.91c-.9-.23-1.74,.37-1.97,1.24l-38.71,138.97c-.26,.91,.28,1.87,1.21,2.13l21.75,6.07c.15,.05,.3,.07,.46,.07,.02,0,.03-.02,.05-.02,.08,0,.12,.11,.21,.1,.48,0,.96-.21,1.28-.57l30.15-33.29c1.89,13.26,7.28,26.07,20.06,31.52,6.34,2.72,13.15,4.07,19.98,4.07s13.95-1.42,20.45-4.25c10.98-4.78,25.99-15.82,35.15-41.26,.33-.89-.12-1.86-1-2.2Z"/>
    <path class="cls-1" d="M356.6,765.65c-18.37-21.24-42.87-21.96-60.16-18.84-7.98,1.45-15.69,3.94-22.86,6.98l2.42-45.88c.03-.48-.15-.95-.48-1.3-.33-.34-.77-.53-1.24-.53h-.03l-31.59,.6c-.92,.02-1.68,.78-1.7,1.7l-.79,42.83-31.14-20.99c-.41-.28-.87-.36-1.35-.26-.46,.11-.87,.41-1.12,.81l-15.92,27.16c-.23,.41-.29,.89-.17,1.34,.12,.44,.42,.82,.82,1.05l39.88,22.13c-21.31,18.9-41.26,38.29-41.49,38.53-.68,.65-.7,1.71-.07,2.41l19.1,20.92c.62,.69,1.67,.77,2.37,.17,.22-.18,13.43-10.95,27.79-22.9l-1.03,55.7c0,.46,.17,.9,.48,1.24,.33,.33,.77,.52,1.22,.53l25.77,.44h.03c.92,0,1.68-.72,1.72-1.65l4.39-83.42c17.63-12.22,42.44-16.41,54.94-2.88,4.82,5.23,6.69,12.07,5.41,19.79-2.42,14.56-15.63,29.93-34.47,40.14-.43,.24-.74,.63-.86,1.1s-.03,.98,.24,1.37l14.26,21.3c.33,.5,.88,.78,1.44,.78,.17,0,.35-.03,.52-.09,24.44-7.72,46.69-31.39,54.11-57.55,5.59-19.77,1.89-38.5-10.42-52.72Z"/>
    <g>
      <path class="cls-1" d="M535.05,762.1c26.91-4.52,46.14-4.73,61.97-2.32l-1.53,17.99c-.07,.83,.47,1.59,1.28,1.78l25.17,5.97c.12,.02,.26,.05,.38,.05,.69,0,1.33-.43,1.58-1.1l16.77-45.8c.16-.44,.12-.94-.1-1.36,0-.01-.03-.01-.03-.03-.01-.02,.01-.05,0-.07-.19-.43-.54-.77-.97-.92-11.98-4.34-24.51-7.27-37.04-9.08l-.77-.19c-.08-.02-.15,.05-.23,.05-26.43-3.67-52.8-1.81-74,6.02-.81,.29-1.26,1.15-1.05,1.98l6.67,25.81c.21,.85,.98,1.42,1.9,1.24Z"/>
      <path class="cls-1" d="M629.31,826.85c-.44-.25-.97-.24-1.41-.03-7.09,3.13-43.91,12.24-94.51-.42-.87-.23-1.76,.29-2.02,1.16l-8.29,28.82c-.23,.81,.17,1.66,.95,1.99,17.98,7.84,40.4,10.88,61.36,10.88s39.56-2.9,51.69-7.02c.82-.28,1.3-1.15,1.08-1.99l-7.97-32.29c-.11-.47-.44-.88-.89-1.09Z"/>
    </g>
    <path class="cls-3" d="M701.19,861.55c0-8.24-16.48-24.72-24.72-24.72,8.24,0,24.72-16.48,24.72-24.72,0,8.24,16.48,24.72,24.72,24.72-8.24,0-24.72,16.48-24.72,24.72Z"/>
  </g>
</svg>