<?xml version="1.0" encoding="UTF-8"?>
<svg id="_レイヤー_1" data-name="レイヤー 1" xmlns="http://www.w3.org/2000/svg" viewBox="0 0 95 95">
  <defs>
    <style>
      .cls-1 {
        fill: #f2f2f2;
      }

      .cls-2 {
        fill: #040000;
      }

      .cls-3 {
        fill: #fdd100;
      }

      .cls-4 {
        fill: #fff;
      }

      .cls-5 {
        fill: #ffdc2d;
      }

      .cls-6 {
        fill: #ffd70b;
      }
    </style>
  </defs>
  <rect class="cls-3" width="95" height="95"/>
  <g>
    <path class="cls-4" d="M59.01,30.3l-1.75,2.38c1.32,1.2,4.25,3.86,4.57,4.31-.5,1.13,.62,1.8,1.51,1.14,1.13-.83-1.33-4.42-3.4-6.8-.33-.38-.64-.71-.94-1.03Z"/>
    <path class="cls-4" d="M48.86,33.7l.45-1.4-1.81-1.28c-.2,.35-.3,.53-.3,.53,0,0-1.82-.3-2.13-.36-.21-1.11-2-.8-1.59,.44,.47,1.41,3.55,2.94,5.38,2.06Z"/>
    <path class="cls-4" d="M57.69,47.59l-2.87-3.16c.52-.88,.96-1.66,1.2-2.2,1.02-2.26,.8-4.15,.8-4.15l-8.63-.08c-.11,2.76,1.11,5.55,2.28,7.11l-1.8,5.35,1.88,.61s1.26-1.86,2.59-3.93c1.6,.87,3.51,1.78,3.51,1.78l1.05-1.33Z"/>
    <path class="cls-2" d="M60.22,31.09c-2.08-2.4-3.71-3.53-3.78-3.58-.12-.08-.27-.09-.38-.01-.11,.06-.17,.18-.17,.3-.8,.14-1.88,.42-3.6,.35s-2.38-.16-3.08-.27c-1.25,1.64-1.93,2.81-2.19,3.28-.42-.07-1.24-.21-1.66-.28-.13-.33-.39-.57-.74-.68-.44-.13-.93-.01-1.24,.3-.3,.31-.38,.76-.23,1.24,.06,.19,.17,.37,.3,.56,.1,1.01,.46,1.66,.57,1.83-.04,4.4-1.8,6.82-1.82,6.84-.08,.1-.05,.25,.05,.33,.04,.03,.09,.05,.14,.05,.07,0,.14-.03,.19-.09,.08-.1,1.86-2.55,1.91-7.08,.09-.1,.27-.31,.46-.6,.5,.28,1.07,.5,1.65,.63,.37,.08,.72,.12,1.05,.12,.15,0,.29-.02,.44-.04-.26,2.04-.26,3.88-.26,3.88-.05,2.64,1.08,5.36,2.25,6.99l-1.74,5.19s0,0,0,0c-.21,.04-.74,.12-1.38,0-.73-.14-1.2,.43-.7,.96,.5,.53,.92,.57,1.77,.76,.85,.2,1.06,.28,1.54,.5,.47,.23,.68-.04,.88-.37,.12-.2,.29-.62,.41-.95,.12-.18,1.21-1.79,2.41-3.64,1.49,.79,3.1,1.57,3.22,1.63l.02,.76s-.92,1.03-.4,1.31c.52,.28,1.52-.28,1.81-.6,.29-.32,.96-1.8,1.17-2.18,.21-.37-.26-.71-1.23-1.28l-2.59-2.85c.47-.79,.86-1.5,1.09-2.01,.74-1.65,.87-3.39,.89-4.32,.03-.79,.09-3.1,.05-4.89,1.66,1.5,3.61,3.3,4.14,3.88-.2,.65,.04,1.15,.36,1.41,.23,.19,.52,.28,.81,.28,.32,0,.66-.11,.96-.33,.24-.17,.38-.44,.42-.77,.21-1.87-3.1-5.79-3.76-6.56Zm-15.94,2.59c-.09-.17-.2-.43-.29-.76,.16,.14,.35,.28,.54,.41-.09,.14-.18,.26-.25,.35Zm2.46-.18c-1.33-.3-2.66-1.2-2.92-1.98-.05-.15-.08-.36,.06-.51,.09-.09,.22-.14,.36-.14,.05,0,.1,0,.16,.02,.12,.03,.27,.13,.31,.37,.03,.14,.14,.26,.29,.29,.32,.06,2.15,.36,2.15,.36,.16,.02,.25-.03,.35-.19,.03-.04,.09-.15,.19-.32l.79,.67c-.02,.1-.05,.2-.07,.31-.08,.38-.15,.77-.22,1.16-.53,.1-1.08,.05-1.44-.03Zm10.47,14.1l-.68,.87c-.52-.25-1.75-.86-2.89-1.46,.42-.66,.84-1.33,1.23-1.97l2.34,2.57Zm-1.52-5.52c-.87,1.94-4.37,7.18-5.25,8.48l-1.23-.63,2.96-8.81c.04-.12,.01-.25-.07-.35l-.63-.72c-.13-.15-.36-.16-.51-.03-.15,.13-.16,.36-.03,.51l.49,.57-1.08,3.21c-.94-1.49-1.85-3.76-1.81-6.11l7.96,.16c-.04,.92-.21,2.39-.82,3.73Zm7.45-4.25c-.36,.26-.71,.22-.9,.07-.2-.16-.22-.44-.08-.78,.05-.12,.04-.25-.04-.36-.33-.45-2.9-2.8-4.34-4.11l1.34-1.71c.18,.2,.36,.38,.55,.6,2.22,2.56,3.7,5.03,3.59,6.01-.02,.17-.08,.23-.13,.27Z"/>
    <path class="cls-4" d="M61.89,12.84c-2.5-4.75-9.01-6.4-13.6-3.6s-4.53,8.12-4.67,10.48-.66,4.57,2.45,6.73c2.33,1.62,5.97,1.86,8.77,1.41,2.8-.45,4.47-1.87,5.51-3.35,.41-.58,2.13-.57,2.7-2.2,.82-2.33,.31-6.67-1.16-9.46Z"/>
    <path class="cls-2" d="M46.81,18.74c-1.01,.01-.99,1.92,0,1.98s1.01-2,0-1.98Z"/>
    <path class="cls-2" d="M55.7,19.05c-1.01,.01-.99,1.92,0,1.98,.99,.07,1.01-2,0-1.98Z"/>
    <path class="cls-2" d="M51.33,25.07c-1.19,0-2.47-.4-2.95-1.39-.06-.12,0-.25,.11-.31,.11-.06,.25-.01,.31,.11,.46,.93,1.94,1.26,3.17,1.09,.99-.13,1.69-.54,1.78-1.04,.03-.13,.14-.2,.27-.18,.13,.02,.21,.14,.18,.27-.13,.71-.97,1.25-2.18,1.41-.22,.03-.46,.05-.69,.05Z"/>
    <path class="cls-2" d="M63.28,14.08c-1.27-3.66-4.53-7.21-10.86-6.77-4.73,.33-6.84,3.22-7.78,5.56-.83,1.75-1.11,3.59-1.23,5.08-1.6,4.84-.91,6.9,1.39,7.82,.31,.31,.66,.61,1.09,.92,1.77,1.23,4.17,1.67,6.39,1.67,.92,0,1.81-.08,2.6-.2,.86-.14,1.63-.41,2.36-.73,6.38,.5,7.28-3.47,7.31-6.32,.03-2.32-.42-4.84-1.26-7.02Zm-.67,7.89c-.37,.85-.95,1.27-1.47,1.51-.07,.03-.13,.07-.2,.09-.16,.06-.32,.1-.45,.13-.21,.36-.36,.58-.4,.63-.33,.47-.7,.89-1.11,1.26,0,0-.02,.01-.03,.02-.4,.36-.84,.68-1.31,.95,0,0,0,0,0,0-.85,.48-1.8,.83-2.87,1-2.47,.4-6.19,.27-8.54-1.36-2.66-1.85-2.53-3.67-2.37-5.78,.02-.22,.08-1.21,.08-1.21,.05-.89,.11-2.06,.35-3.31,1.41-.1,6.33-.68,10.96-3.83,1.75,3.25,3.21,5.16,4.22,6.25,.11,1.42,.13,2.04,.14,2.33,.01,.44,.35,.44,.59,.12,.04-.05,.07-.1,.1-.16h0c.2-.38,.34-.89,.95-1.16,.34-.15,.68-.02,.93,.16,.07,.05,.14,.1,.2,.16,.12,.14,.22,.31,.29,.5,0,0,0,0,0,0,.07,.19,.11,.4,.12,.62,.02,.34-.03,.71-.2,1.1Z"/>
    <g>
      <path class="cls-4" d="M52.78,49c-.21-.8-.14-1.35-.93-1.41-.79-.06-.9-.46-.9-.46,0,0,.24-1.85-.14-3.54-.37-1.69-2.56-4.6-7.07-2.44,0,.02,0,.04-.01,.06l-.88-.08c.2-1.44-.23-2.89-1.09-3.94-1.53-1.89-3.62-2.37-5.29-2.29-1.68,.08-2.45,.42-3.65,1.67-.93,.96-1.22,2.64-1.19,3.85-.84,.83-1.11,2.13-.64,2.99,.35,.64,.88,.94,1.39,.94,.37,.75,1.5,1.42,2.52,1.56,.2,.77,.44,1.34,.79,1.84-.38,1.03-1,2.12-1.57,2.48-1.26-.15-1.17,1.07-.05,1.36,.55,.15,1.27,.02,2.08-.35,0,.11,.03,.22,.17,.35,.5,.48,1.46,.57,2.65-.05,.72-.38,2-1.31,2.91-1.99,.19,.02,.38,.04,.55,.04,1.59,.04,2.56-.74,3.37-1.42,.73,.85,1.76,1.05,2.6,1.24,1.08,.24,2.95-.06,2.95-.06,0,0,.45,1.27,.74,1.69,.29,.42,1.11,.33,1.07-.21-.05-.54-.15-1.04-.36-1.84Z"/>
      <path class="cls-6" d="M34.84,45.92c.38,2.08,2.01,2.92,2.01,2.92,0,0,1.67-.41,3.21-1.98s1.73-3.08,1.73-3.08c0,0-1.95,2.11-4.28,2.2s-2.67-.06-2.67-.06Z"/>
      <path class="cls-2" d="M53.08,48.92h0c-.04-.15-.07-.29-.09-.41-.12-.57-.24-1.17-1.12-1.23-.39-.03-.55-.15-.6-.21,.05-.42,.18-2.03-.15-3.54-.21-.95-.96-2.31-2.4-3.01-.99-.48-2.68-.81-5.11,.36l-.02,.02-.44-.04c.1-1.27-.24-2.49-.92-3.49,.28-.2,.69-.58,.82-1.25,.2-1.03,.03-1.76-.26-2.52s-.4-1.42-.81-2.12c-.41-.69-1.28-.3-1.82,.42-.54,.72-1.03,1.75-1.12,2.51-.02,.19-.07,.36-.14,.52-.59-.18-1.15-.26-1.64-.29-.05-.71-.13-1.39-.3-2.03-.35-1.31-.77-1.78-1.32-1.44-.56,.34-2.16,2.94-2.4,4.32-.02,.11,0,.2,0,.29-.2,.18-.41,.37-.63,.59-.96,1-1.29,2.66-1.28,3.94-.86,.93-1.12,2.3-.61,3.25,.34,.63,.89,1.02,1.47,1.08,.43,.69,1.4,1.28,2.38,1.49,.18,.53,.41,1.11,.75,1.64-.36,.93-.87,1.8-1.3,2.13-.73-.06-1.07,.33-1.13,.68-.09,.47,.26,1.09,1.08,1.31,.54,.14,1.22,.06,1.97-.23,.04,.05,.08,.11,.13,.16,.28,.27,.73,.47,1.32,.47,.08,0,.18-.03,.26-.04,.2,0,.37-.03,.48-.07,0,0,0,0,0,0,.3-.08,.61-.19,.95-.37,.56-.3,1.52-.95,2.85-1.94,.16,.02,.31,.03,.45,.03,1.54,.06,2.59-.68,3.35-1.3,.74,.71,1.68,.92,2.44,1.09l.11,.03c.89,.2,2.25,.05,2.81-.02,.15,.41,.46,1.19,.69,1.52,.24,.35,.73,.49,1.15,.34,.34-.12,.53-.42,.5-.76-.05-.55-.15-1.06-.36-1.89Zm-19.25-11.43c.17-.89,.77-1.92,1.96-2.23,.21-.03,.44-.05,.69-.06,.49-.02,1.17,.01,1.93,.2-1.83,.21-2.09,2.8-2.12,3.41,0,.2-.06,.33-.21,.63-.15,.3-.23,.75,.27,1.01s.98,.6,1.24,.85c.37,.35,.65,.72,1.14,1.03,.83,.53,2.27,.73,3.12,.08,.22-.17,.39-.37,.53-.6-.32,.91-.96,2.09-2.53,3.15-1.57,1.06-3.99,.78-4.92,.66-.05,0-.1-.03-.15-.04,.24-.08,.46-.21,.65-.41,.2,0,.41,0,.65,0,1.45-.05,2.34-.72,2.94-1.1s-.69-1.19-.94-.78c-.25,.41-.68,.8-1.29,.88-1.06,.15-2.07-.3-2.5-.78-.43-.48-.56-1.16-.37-2.19,.35-.06,.95-.48,1.12-.85,0,0,.2,.08,.3,.1s.25-.02,.29-.1c.05-.11,0-.23-.1-.29s-.71-.3-1.26-.36-.7-.02-.7-.02c.4-.53,.14-1.43,.28-2.19Zm-1.56,6.5c-.55-.05-.81-.32-1.03-.72-.4-.73-.15-1.84,.56-2.58,.44-.39,.66-.43,.93-.51,0,.05,0,.12,.02,.2,.11,.27,.39,.52,.6,.67,.05,.04,.09,.05,.13,.07-.14,.79-.09,1.36-.02,1.67-.08,.63-.63,1.25-1.18,1.2Zm1.39,1.21c-.35-.09-.71-.31-.77-.61,.41-.12,.69-.3,.84-.41,.29,.14,.96,.45,1.47,.57-.36,.49-1,.59-1.54,.45Zm1.59,1.05c.57,.06,1.46,.14,2.16,.06,.79-.09,2.43-.23,3.94-1.74-.96,2.13-3.16,3.46-4.51,3.94-.77-.49-1.26-1.41-1.59-2.26Zm.73,4.7s0,0,0,0c-.74,.34-1.38,.45-1.85,.33-.46-.12-.66-.42-.63-.58,.03-.13,.25-.2,.56-.16h.11s.09-.05,.09-.05c.55-.35,1.09-1.23,1.49-2.14,.26,.3,.54,.57,.89,.76,.05,.03,.1,.04,.15,.04,.03,0,.07,0,.1-.01,.23-.08,.49-.18,.76-.3l-.87,1.48c-.23,.07-.66,.26-.8,.64Zm16.75,.03c-.13,.05-.33,.01-.41-.11-.22-.31-.58-1.28-.7-1.62l-.09-.25-.26,.04s-1.83,.29-2.83,.06l-.11-.03c-.79-.18-1.69-.38-2.32-1.12l-.2-.24-.24,.2c-.78,.65-1.63,1.38-3.16,1.34-.17,0-.34-.02-.52-.04h-.12s-.1,.06-.1,.06c-1.34,1-2.33,1.68-2.87,1.96-.51,.27-.94,.37-1.3,.38-.33,0-.7-.07-.83-.23-.04-.05-.13-.17-.1-.25,.04-.12,.32-.24,.49-.28,.08-.02,.16-.07,.2-.14l1.45-2.47c1.15-.7,2.35-1.76,3.08-3.17,.67,.09,1.38,.05,2.09-.18,2.14-.71,1.86-3.26,1.35-4,1.21-.34,2.28-.29,3.21,.16,1.24,.6,1.88,1.77,2.06,2.58,.36,1.62,.13,3.41,.13,3.43v.07s0,.06,0,.06c.02,.06,.21,.62,1.19,.69,.39,.03,.43,.15,.55,.73,.03,.14,.06,.29,.1,.44,.21,.79,.3,1.28,.35,1.79,0,.04,0,.08-.08,.11Z"/>
      <path class="cls-4" d="M40.81,33.73c.24-.78,.65-.95,.86-.51s.5,1.54,.43,2.27-.73,1.36-.73,1.36c-.23-1.09-.85-2.18-.56-3.11Z"/>
      <path class="cls-4" d="M32.16,38.29s-.04,.05-.06,.07c0,0,.01,0,.02,0,.69-.11,.58,1.28-.15,1.44,0,0-.02,0-.03,0,.1,.04,.23,.05,.4,0,.46-.14,.71-.64,.7-1.09,0-.36-.28-.78-.89-.41Z"/>
      <path class="cls-4" d="M37.96,38.44c-.21-.02-.36,.05-.49,.13,.02,0,.03,0,.05,0,1.04,.13,.98,1.71,.03,1.76,.12,.09,.27,.15,.42,.19,.96,.21,1.38-.39,1.26-.9s-.68-1.12-1.28-1.18Z"/>
    </g>
  </g>
  <g>
    <g>
      <path class="cls-2" d="M80.3,63.13h-4.8s-.07,.03-.07,.07v4.46s.03,.07,.07,.07h1.5s.07-.03,.07-.07v-.44h1.58v.4s.03,.07,.07,.07h1.58s.07-.03,.07-.07v-4.42s-.03-.07-.07-.07Z"/>
      <path class="cls-2" d="M80.74,61.04h-1.05c.07-.19,.25-.62,.54-1.38,0-.02,0-.04,0-.06-.01-.02-.03-.03-.05-.03l-.69-.14h1.11s.07-.03,.07-.07v-1.41s-.03-.07-.07-.07h-1.86v-.82s-.03-.07-.07-.07h-1.59s-.07,.03-.07,.07v.82h-1.89s-.07,.03-.07,.07v1.41s.03,.07,.07,.07h1.22l-.62,.13s-.04,.02-.05,.03c-.01,.02-.01,.04,0,.06,.18,.48,.29,.95,.33,1.39h-1.09s-.07,.03-.07,.07v1.47s.03,.07,.07,.07h5.82s.07-.03,.07-.07v-1.47s-.03-.07-.07-.07Zm-2.54-.15s0,.04,0,.06,.03,.03,.04,.03l.26,.06h-1.32l.33-.07s.06-.04,.05-.08c-.06-.5-.19-.99-.39-1.46h1.38c-.07,.45-.2,.94-.37,1.46Z"/>
      <path class="cls-2" d="M85.63,58.3s0-.06-.03-.08l-1.2-.74s-.03-.01-.05,0l-.24,.05h-3.11s-.07,.03-.07,.07v10.05s.03,.07,.07,.07h1.59s.07-.03,.07-.07v-2.66c.17,.38,.27,.84,.28,1.35,0,.04,.03,.07,.07,.07,.41,0,.69-.01,.85-.03,.33-.04,.61-.15,.83-.32,.45-.32,.68-.94,.68-1.84,0-.98-.32-1.85-.94-2.6,.27-.64,.67-1.75,1.19-3.29Zm-2.96,.89h.8c-.28,1.1-.54,1.97-.77,2.59,0,.02,0,.05,.01,.07,.64,.66,.96,1.38,.96,2.11,0,.34-.07,.55-.21,.63-.08,.05-.19,.08-.34,.08-.08,0-.23,0-.45,0v-5.48Z"/>
    </g>
    <path class="cls-2" d="M66.95,64.34l-1.62-.62s-.06-.01-.09,0c-.03,.02-.04,.05-.05,.08-.03,.41-.3,1.02-.73,1.33-.26,.19-.55,.24-.85,.17-.22-.05-.38-.18-.49-.37-.38-.66-.02-1.9-.02-1.91,.01-.05-.01-.1-.06-.12l-1.39-.58s-.09,0-.12,.03l-.67,.91,1.63-4.55s0-.06,0-.09-.04-.04-.07-.05l-1.96-.35c-.05-.01-.1,.02-.12,.07l-2.31,8.28c-.02,.05,.02,.11,.07,.13l1.3,.36s.02,0,.03,0c0,0,0,0,0,0,0,0,0,0,.01,0,.03,0,.06-.01,.08-.03l1.8-1.98c.11,.79,.43,1.55,1.2,1.88,.38,.16,.78,.24,1.19,.24s.83-.08,1.22-.25c.65-.28,1.55-.94,2.09-2.46,.02-.05,0-.11-.06-.13Z"/>
    <g>
      <path class="cls-2" d="M15.48,61.39c-.39-.07-.76-.12-1.12-.14,0-.28-.01-.57-.02-.85l2.14-.09c.06,0,.1-.05,.1-.11l-.04-1.66s-.01-.05-.03-.07c-.02-.02-.04-.03-.07-.03,0,0,0,0,0,0l-2.14,.09c-.01-.33-.02-.67-.04-1,0-.03-.01-.05-.03-.07s-.05-.03-.08-.03l-1.89,.13s-.05,.01-.07,.04c-.02,.02-.03,.05-.02,.08,.03,.31,.05,.63,.08,.94l-2.38,.11c-.06,0-.1,.05-.1,.11l.04,1.66s.01,.05,.03,.07c.02,.02,.04,.03,.07,.03,0,0,0,0,0,0l2.47-.11c.02,.31,.05,.63,.07,.94-.22,.06-.45,.13-.67,.21-.7,.3-1.26,.72-1.67,1.24-.45,.57-.71,1.29-.74,2.01-.03,.89,.24,1.6,.81,2.12,.61,.53,1.49,.7,2.29,.45,.75-.22,1.41-.87,1.64-1.62,.17-.58,.19-1.04,.21-1.48,0-.11,.01-.22,.02-.34,0-.23,.01-.46,.02-.68,.26,0,.51,.01,.76,.04,.75,.11,1.15,.49,1.31,1.22,.1,.49-.17,1.19-.78,2.09-.03,.04-.02,.1,.02,.14l.95,.81s.04,.02,.07,.02c.03,0,.05,0,.07-.03,1.11-1.04,1.62-2.13,1.59-3.34-.03-.75-.41-1.54-.97-2.01-.51-.44-1.14-.73-1.87-.89Zm-3.02,3.94c-.07,.27-.25,.47-.51,.58-.26,.11-.57,.04-.7-.1-.13-.1-.21-.46-.16-.79,.11-.74,.69-1.19,1.45-1.44,0,.14,0,.27,0,.41,0,.53,0,1.06-.08,1.35Z"/>
      <path class="cls-2" d="M16.8,61.41l1.34,.28s.01,0,.02,0c.05,0,.09-.03,.1-.08l.87-3.6s0-.06-.01-.08c-.02-.02-.04-.04-.07-.04l-1.71-.29s-.06,0-.08,.02c-.02,.02-.04,.04-.04,.07l-.51,3.61c0,.05,.03,.1,.08,.11Z"/>
    </g>
    <g>
      <path class="cls-2" d="M23.39,64.08c-.01-.79,.74-1.96,1.88-2.95,.78,0,1.28,.03,1.3,.03,.03,0,.05,0,.07-.03s.03-.04,.03-.07l.09-1.83c0-.06-.04-.1-.1-.11-.04,0-3.86-.19-7.31,.41-.03,0-.05,.02-.07,.04-.02,.02-.02,.05-.02,.08l.32,1.8s.02,.05,.04,.07c.02,.01,.04,.02,.06,.02,0,0,.01,0,.02,0,1.01-.19,2.12-.3,3.16-.35-.45,.53-.88,1.2-1.21,1.91-.16,.38-.35,1.17-.26,1.72,.08,.58,.43,1.23,.74,1.57,.67,.72,1.99,1.18,2.04,1.2,.01,0,.02,0,.03,0,.03,0,.07-.02,.09-.05l.99-1.49s.02-.06,.01-.09c0-.03-.03-.05-.06-.07-.68-.3-1.83-.94-1.85-1.82Z"/>
      <path class="cls-2" d="M25.89,61.83s-.05-.02-.08-.01l-1.19,.32s-.05,.03-.06,.05c-.01,.03-.02,.05,0,.08l.67,2s.05,.07,.1,.07c0,0,.02,0,.03,0l.89-.25c.05-.01,.08-.07,.07-.12l-.37-2.08s-.02-.05-.05-.07Z"/>
      <path class="cls-2" d="M27.61,61.66s-.02-.06-.04-.08c-.02-.02-.05-.03-.08-.02l-1.17,.2s-.05,.02-.07,.04c-.02,.02-.02,.05-.02,.08l.41,2.03s.05,.08,.1,.08c0,0,.01,0,.02,0l.87-.16c.05,0,.09-.06,.08-.11l-.11-2.07Z"/>
    </g>
    <g>
      <path class="cls-2" d="M34.73,60.71c-.74-.56-1.59-.75-2.43-.76l.36-1.97s0-.06-.02-.08c-.02-.02-.04-.04-.07-.04l-1.73-.2c-.06,0-.11,.03-.11,.09l-.35,2.4c-1.22,.24-2.36,.69-2.37,.7-.03,.01-.05,.03-.06,.06-.01,.03,0,.06,0,.08l.65,1.4s.07,.07,.12,.06c.45-.14,.91-.25,1.36-.34l-.7,4.73s0,.06,.02,.08c.02,.02,.04,.04,.07,.04l1.41,.18s0,0,.01,0c.05,0,.09-.04,.1-.08l.94-5.16c.51,0,1.19,.04,1.61,.33,.62,.43,.27,1.73,.11,2.15-.11,.28-.27,.6-.46,.94l-.56-.19s-.1,0-.12,.05l-.6,1.11c-.03,.05,0,.11,.04,.14l1.63,.89,.05,.04s.04,.02,.06,.02c.03,0,.05-.01,.07-.03,.69-.71,1.27-1.7,1.72-2.95,.42-1.19,.45-2.78-.75-3.68Z"/>
      <path class="cls-2" d="M37.59,60.47l-2.93-3.09s-.1-.04-.14,0l-1.31,1.16s-.03,.05-.03,.08c0,.03,.01,.06,.03,.08l3.08,2.94s.05,.03,.07,.03c.02,0,.05,0,.07-.03l1.16-1s.03-.04,.04-.07,0-.06-.03-.08Z"/>
    </g>
    <g>
      <path class="cls-2" d="M46.78,60.06c0-.06-.05-.1-.1-.1h0l-1.33,.02c0-.89-.03-1.61-.05-1.95,0-.06-.05-.1-.1-.1h0l-2.06,.03s-.06,.01-.07,.03-.03,.05-.03,.08c.05,.71,.08,1.34,.1,1.94l-1.75,.02s-.05,.01-.07,.03c-.02,.02-.03,.05-.03,.07l.02,1.65c0,.06,.05,.1,.1,.1h0l1.76-.02c0,3.43-.49,4.49-.75,5.07-.02,.05,0,.11,.05,.14l1.28,.64s.03,.01,.05,.01c.03,0,.05-.01,.07-.03,.99-1.04,1.33-3.6,1.44-5.85l1.39-.02s.05-.01,.07-.03c.02-.02,.03-.05,.03-.07l-.02-1.65Z"/>
      <path class="cls-2" d="M40.56,64.22l-.57,.17c-.02-.17-.04-.35-.06-.55-.16-1.64-.08-3.68-.08-3.7,0-.03,0-.05-.03-.07-.02-.02-.05-.03-.07-.03l-1.84-.04h0c-.06,0-.1,.04-.1,.1-.06,1.38-.01,2.44,.15,3.55,.08,.57,.18,1.09,.31,1.57,.15,.55,.29,.98,.56,1.5l.02,.07s.03,.05,.06,.07c.01,0,.02,0,.03,0,0,0,0,0,0,0,0,0,.02,0,.03,0,.02,0,.03,0,.05-.01l.14-.08,2-.9s.07-.08,.06-.13l-.52-1.47c-.02-.05-.07-.08-.13-.06Z"/>
    </g>
    <path class="cls-2" d="M57.36,60.87c-1.09-1.27-2.55-1.31-3.59-1.12-.48,.09-.93,.24-1.36,.42l.14-2.73s0-.06-.03-.08c-.02-.02-.05-.03-.07-.03h0l-1.88,.04c-.06,0-.1,.05-.1,.1l-.05,2.55-1.86-1.25s-.05-.02-.08-.02c-.03,0-.05,.02-.07,.05l-.95,1.62s-.02,.05-.01,.08c0,.03,.02,.05,.05,.06l2.38,1.32c-1.27,1.13-2.46,2.28-2.47,2.3-.04,.04-.04,.1,0,.14l1.14,1.25s.1,.05,.14,.01c.01-.01,.8-.65,1.66-1.36l-.06,3.32s.01,.05,.03,.07c.02,.02,.05,.03,.07,.03l1.54,.03h0c.06,0,.1-.04,.1-.1l.26-4.97c1.05-.73,2.53-.98,3.27-.17,.29,.31,.4,.72,.32,1.18-.14,.87-.93,1.78-2.05,2.39-.03,.01-.04,.04-.05,.07s0,.06,.01,.08l.85,1.27s.05,.05,.09,.05c.01,0,.02,0,.03,0,1.46-.46,2.78-1.87,3.22-3.43,.33-1.18,.11-2.29-.62-3.14Z"/>
    <g>
      <path class="cls-2" d="M68,60.66c1.6-.27,2.75-.28,3.69-.14l-.09,1.07s.03,.09,.08,.11l1.5,.36s.02,0,.02,0c.04,0,.08-.03,.09-.07l1-2.73s0-.06,0-.08c0,0,0,0,0,0,0,0,0,0,0,0-.01-.03-.03-.05-.06-.06-.71-.26-1.46-.43-2.21-.54h-.05s0,0-.01,0c-1.58-.22-3.15-.11-4.41,.36-.05,.02-.08,.07-.06,.12l.4,1.54c.01,.05,.06,.08,.11,.07Z"/>
      <path class="cls-2" d="M73.62,64.52s-.06-.01-.08,0c-.42,.19-2.62,.73-5.63-.02-.05-.01-.1,.02-.12,.07l-.49,1.72s.01,.1,.06,.12c1.07,.47,2.41,.65,3.66,.65s2.36-.17,3.08-.42c.05-.02,.08-.07,.06-.12l-.47-1.92s-.03-.05-.05-.07Z"/>
    </g>
    <path class="cls-5" d="M77.9,66.59c0-.49-.98-1.47-1.47-1.47,.49,0,1.47-.98,1.47-1.47,0,.49,.98,1.47,1.47,1.47-.49,0-1.47,.98-1.47,1.47Z"/>
  </g>
  <rect x="25.82" y="72.84" width="43.35" height="14.45"/>
  <g>
    <path class="cls-1" d="M40.01,82.56c-.12,.11-.29,.19-.48,.25-.2,.06-.43,.09-.69,.09-.35,0-.63-.04-.86-.13-.23-.09-.37-.24-.44-.45-.27-.85-.49-1.53-.66-2.06-.17-.53-.31-.99-.4-1.38h-.07c-.03,.57-.05,1.09-.06,1.55-.01,.47-.02,.92-.03,1.37,0,.44-.01,.89-.03,1.34-.01,.45-.04,.95-.06,1.5-.12,.05-.29,.09-.49,.12-.2,.03-.4,.05-.61,.05-.42,0-.75-.07-.99-.2-.24-.13-.35-.38-.35-.74l.42-7.37c.08-.12,.25-.26,.51-.4s.63-.22,1.1-.22c.51,0,.91,.08,1.2,.24s.5,.42,.64,.77c.09,.23,.18,.5,.28,.79,.1,.3,.2,.61,.3,.92,.1,.32,.2,.63,.3,.95,.1,.31,.18,.59,.26,.84h.07c.23-.81,.46-1.59,.69-2.35,.23-.76,.44-1.39,.64-1.9,.14-.08,.33-.14,.56-.2,.23-.05,.48-.08,.76-.08,.47,0,.86,.07,1.16,.21,.3,.14,.47,.34,.52,.6,.04,.19,.08,.49,.12,.89,.04,.4,.09,.85,.14,1.35,.05,.5,.1,1.03,.14,1.59,.05,.56,.09,1.1,.14,1.61,.04,.51,.08,.99,.11,1.42,.03,.43,.05,.76,.06,.99-.16,.1-.33,.17-.51,.21-.18,.04-.41,.06-.69,.06-.37,0-.67-.06-.92-.19-.25-.12-.39-.37-.4-.74-.06-1.05-.09-1.99-.11-2.83s-.04-1.54-.06-2.11h-.07c-.1,.38-.24,.85-.42,1.42-.18,.57-.4,1.3-.67,2.18Z"/>
    <path class="cls-1" d="M47.33,76.22c.16-.1,.41-.19,.74-.27,.33-.09,.67-.13,1-.13,.48,0,.91,.07,1.28,.21,.37,.14,.61,.36,.71,.66,.17,.5,.36,1.08,.56,1.75,.2,.67,.4,1.35,.61,2.06s.4,1.41,.59,2.09c.19,.69,.36,1.3,.51,1.83-.12,.14-.29,.24-.52,.33-.23,.08-.51,.12-.82,.12-.23,0-.43-.02-.58-.06-.16-.04-.29-.1-.39-.17s-.18-.18-.25-.3c-.06-.12-.12-.27-.17-.43l-.26-1h-2.62c-.08,.29-.15,.59-.23,.9s-.15,.61-.23,.9c-.14,.05-.28,.09-.43,.12-.15,.03-.33,.05-.54,.05-.49,0-.85-.08-1.09-.25-.24-.17-.35-.4-.35-.7,0-.13,.02-.27,.06-.4s.08-.29,.13-.48c.07-.26,.16-.58,.28-.97,.12-.38,.25-.8,.4-1.25,.14-.45,.3-.91,.46-1.38,.16-.47,.32-.92,.46-1.34s.28-.79,.4-1.12,.21-.58,.28-.75Zm1.73,1.86c-.13,.41-.29,.86-.46,1.35-.17,.5-.32,1-.46,1.51h1.79c-.13-.52-.27-1.03-.41-1.52-.14-.5-.27-.94-.38-1.34h-.09Z"/>
    <path class="cls-1" d="M57.06,84.66c-.11,.03-.27,.06-.5,.09-.23,.03-.45,.04-.67,.04s-.42-.02-.59-.05c-.17-.03-.31-.09-.43-.18s-.2-.21-.26-.36c-.06-.15-.09-.36-.09-.61v-6.81c0-.2,.05-.36,.17-.47,.11-.11,.26-.2,.46-.27,.33-.12,.7-.2,1.12-.25s.84-.08,1.26-.08c1.33,0,2.35,.28,3.05,.85s1.05,1.34,1.05,2.31c0,.47-.08,.9-.22,1.28-.15,.38-.37,.71-.67,.98s-.67,.49-1.11,.64c-.45,.15-.97,.22-1.55,.22h-1.03v2.66Zm.75-4.64c.4,0,.71-.09,.93-.28,.22-.19,.33-.47,.33-.86s-.11-.65-.34-.85c-.23-.2-.56-.3-.99-.3-.15,0-.28,0-.38,0-.1,0-.21,.02-.31,.04v2.24h.77Z"/>
  </g>
</svg>